<?xml version="1.0" encoding="UTF-8"?>
<svg width="18px" height="18px" viewBox="0 0 18 18" version="1.1" xmlns="http://www.w3.org/2000/svg" xmlns:xlink="http://www.w3.org/1999/xlink">
    <!-- Generator: Sketch 58 (84663) - https://sketch.com -->
    <title>fishWhite</title>
    <desc>Created with Sketch.</desc>
    <g id="页面-1" stroke="none" stroke-width="1" fill="none" fill-rule="evenodd">
        <g id="fishWhite" fill-rule="nonzero">
            <path d="M16.9714799,8.11761293 C16.7811168,5.90973082 16.8931774,3.76032642 17.1414684,1.6171875 C17.1890092,1.2067992 17.0833407,0.321975557 16.8078835,0.0998994431 C16.3943981,-0.233562809 16.1213379,0.509243502 15.892223,0.985071163 C15.3654785,2.07943998 14.9120428,3.41885829 14.5866477,4.73008199 C14.3956854,5.49969059 14.1969327,6.27208385 13.9825994,7.03125 C13.8719371,6.87983447 11.2887518,3.94620204 10.0804554,3.4112005 C8.1698331,2.56571009 6.09940962,2.33562809 4.19897461,3.36943069 C2.53424627,4.27444307 1.11581143,6.28948793 0.256680575,8.92307395 C-0.710715554,11.8883818 1.28759766,14.4575727 2.57599432,15.7395575 C4.23393111,17.3891166 6.55983665,18.2708075 8.44768732,17.6999536 C10.2927912,17.1430229 12.0126509,15.4179301 13.295055,13.0603728 C13.6795765,12.3534189 14.0085671,11.5754564 14.302801,10.7560721 C14.8964622,11.9485999 15.4439808,13.24416 16.1135476,14.2494199 C16.4321511,14.7276841 16.8190696,15.7430384 17.2697088,15.8408493 C18.2337092,16.0496983 17.8401989,14.0492729 17.6977761,13.2211866 C17.4075373,11.539952 17.1214933,9.85836943 16.9714799,8.11761293 L16.9714799,8.11761293 Z" id="路径" fill="#FFFFFF"></path>
            <path d="M4.15482955,7.44894802 L4.04916104,7.44894802 C3.52980735,7.44894802 3.09794478,8.20289295 3.09794478,9.106513 C3.09794478,10.010133 3.53060636,10.764078 4.04916104,10.764078 L4.15482955,10.764078 C4.67418324,10.764078 5.10604581,10.010133 5.10604581,9.106513 C5.10604581,8.20289295 4.67418324,7.44894802 4.15482955,7.44894802 Z" id="路径" fill="#4A90E2"></path>
        </g>
    </g>
</svg>