<?xml version="1.0" encoding="UTF-8"?>
<svg width="20px" height="20px" viewBox="0 0 20 20" version="1.1" xmlns="http://www.w3.org/2000/svg" xmlns:xlink="http://www.w3.org/1999/xlink">
    <!-- Generator: Sketch 58 (84663) - https://sketch.com -->
    <title>yu-3</title>
    <desc>Created with Sketch.</desc>
    <g id="页面-1" stroke="none" stroke-width="1" fill="none" fill-rule="evenodd">
        <g id="yu-3" fill-rule="nonzero">
            <path d="M18.8571999,9.01956993 C18.6456854,6.56636757 18.7701971,4.17814047 19.046076,1.796875 C19.0988991,1.340888 18.9814897,0.357750619 18.6754261,0.110999381 C18.2159979,-0.259514233 17.9125977,0.565826114 17.6580256,1.09452351 C17.0727539,2.31048886 16.5689364,3.79873144 16.2073864,5.25564666 C15.995206,6.11076733 15.7743697,6.96898205 15.5362216,7.8125 C15.4132635,7.64426052 12.5430575,4.38466894 11.200506,3.79022277 C9.07759233,2.85078899 6.7771218,2.59514233 4.66552734,3.74381188 C2.81582919,4.74938119 1.23979048,6.98831993 0.285200639,9.91452661 C-0.789683949,13.2093131 1.43066406,16.0639697 2.86221591,17.4883973 C4.7043679,19.3212407 7.28870739,20.3008973 9.38631925,19.6666151 C11.4364347,19.0478032 13.3473899,17.1310334 14.7722834,14.5115254 C15.1995295,13.726021 15.5650746,12.8616182 15.8920011,11.9511912 C16.5516246,13.2762222 17.1599787,14.7157333 17.9039418,15.8326887 C18.2579457,16.3640934 18.6878551,17.4922649 19.1885653,17.6009437 C20.2596768,17.8329981 19.8224432,15.6103032 19.6641957,14.6902073 C19.3417081,12.8221689 19.0238814,10.9537438 18.8571999,9.01956993 L18.8571999,9.01956993 Z" id="路径" fill="#4A90E2"></path>
            <path d="M4.61647727,8.27660891 L4.49906783,8.27660891 C3.92200817,8.27660891 3.44216087,9.1143255 3.44216087,10.1183478 C3.44216087,11.12237 3.92289595,11.9600866 4.49906783,11.9600866 L4.61647727,11.9600866 C5.19353693,11.9600866 5.67338423,11.12237 5.67338423,10.1183478 C5.67338423,9.1143255 5.19353693,8.27660891 4.61647727,8.27660891 Z" id="路径" fill="#FFFFFF"></path>
        </g>
    </g>
</svg>